# xmcd
#
# Track frame offsets: 
#        182
#        19837
#        39807
#        57082
#        72200
#        89182
#        113952
#        137655
#        155012
#        169160
#        189150
#        208737
#
# Disc length: 3057 seconds
#
# Revision: 3
# Processed by: cddbd v1.5.2PL0 Copyright (c) Steve Scherf et al.
# Submitted via: ExactAudioCopy v0.95b3
#
DISCID=a40bef0c
DTITLE=Blue Blot - Blue Blot Live [CD1)
DYEAR=1993
DGENRE=Blues
TTITLE0=Intro - Tune Partners
TTITLE1=Lonely Town
TTITLE2=No No No
TTITLE3=Never can tell about you
TTITLE4=Pretty good
TTITLE5=Where do we go
TTITLE6=Come let me make your love come down
TTITLE7=She's so special
TTITLE8=Dance to the blunk
TTITLE9=New Blunk
TTITLE10=Let me be the one
TTITLE11=September
EXTD=
EXTT0=
EXTT1=
EXTT2=
EXTT3=
EXTT4=
EXTT5=
EXTT6=
EXTT7=
EXTT8=
EXTT9=
EXTT10=
EXTT11=
PLAYORDER=
